<svg xmlns="http://www.w3.org/2000/svg" xmlns:xlink="http://www.w3.org/1999/xlink" width="500" zoomAndPan="magnify" viewBox="0 0 375 149.999998" height="200" preserveAspectRatio="xMidYMid meet" version="1.0"><defs><g/></defs><rect x="-37.5" width="450" fill="#ffffff" y="-15" height="179.999997" fill-opacity="1"/><rect x="-37.5" width="450" fill="#0b0c0f" y="-15" height="179.999997" fill-opacity="1"/><g fill="#16a34a" fill-opacity="1"><g transform="translate(32.809613, 114.463294)"><g><path d="M 70.953125 -7.515625 C 71.984375 -7.515625 72.671875 -7.210938 73.015625 -6.609375 C 73.367188 -6.003906 73.546875 -5.054688 73.546875 -3.765625 C 73.546875 -2.460938 73.394531 -1.507812 73.09375 -0.90625 C 72.789062 -0.300781 72.078125 0 70.953125 0 L 64.328125 0 C 64.503906 1.039062 64.59375 1.945312 64.59375 2.71875 L 64.59375 7.65625 C 64.59375 15.519531 60.351562 19.453125 51.875 19.453125 L 18.28125 19.453125 C 13.957031 19.453125 10.78125 18.457031 8.75 16.46875 C 6.71875 14.476562 5.703125 11.539062 5.703125 7.65625 L 5.703125 -50.328125 C 5.703125 -54.210938 6.71875 -57.148438 8.75 -59.140625 C 10.78125 -61.128906 13.957031 -62.125 18.28125 -62.125 L 24.25 -62.125 L 24.25 -54.609375 L 20.234375 -54.609375 C 18.328125 -54.609375 16.984375 -54.195312 16.203125 -53.375 C 15.429688 -52.550781 15.046875 -51.1875 15.046875 -49.28125 L 15.046875 6.75 C 15.046875 8.644531 15.429688 9.984375 16.203125 10.765625 C 16.984375 11.546875 18.328125 11.9375 20.234375 11.9375 L 50.0625 11.9375 C 51.882812 11.9375 53.179688 11.546875 53.953125 10.765625 C 54.734375 9.984375 55.125 8.644531 55.125 6.75 L 55.125 3.765625 C 55.125 2.296875 54.882812 1.300781 54.40625 0.78125 C 53.9375 0.257812 52.960938 0 51.484375 0 L 47.984375 0 L 47.984375 -7.515625 Z M 43.578125 0 C 35.109375 0 30.875 -3.929688 30.875 -11.796875 L 30.875 -18.03125 L 40.34375 -18.03125 L 40.34375 -12.84375 C 40.34375 -10.9375 40.726562 -9.570312 41.5 -8.75 C 42.28125 -7.925781 43.578125 -7.515625 45.390625 -7.515625 L 47.734375 -7.515625 L 47.734375 0 Z M 43.578125 0 "/></g></g></g><g fill="#16a34a" fill-opacity="1"><g transform="translate(103.751594, 114.463294)"><g><path d="M 21.40625 -7.515625 C 22.4375 -7.515625 23.125 -7.210938 23.46875 -6.609375 C 23.820312 -6.003906 24 -5.054688 24 -3.765625 C 24 -2.460938 23.847656 -1.507812 23.546875 -0.90625 C 23.242188 -0.300781 22.53125 0 21.40625 0 L 17.125 0 C 13.925781 0 11.765625 -0.863281 10.640625 -2.59375 C 9.515625 -0.863281 7.394531 0 4.28125 0 L 0 0 C -1.125 0 -1.835938 -0.300781 -2.140625 -0.90625 C -2.441406 -1.507812 -2.59375 -2.460938 -2.59375 -3.765625 C -2.59375 -5.148438 -2.441406 -6.117188 -2.140625 -6.671875 C -1.835938 -7.234375 -1.125 -7.515625 0 -7.515625 L 2.203125 -7.515625 C 3.765625 -7.515625 4.78125 -7.773438 5.25 -8.296875 C 5.726562 -8.816406 5.96875 -9.8125 5.96875 -11.28125 L 5.96875 -81.578125 L 15.4375 -81.578125 L 15.4375 -11.28125 C 15.4375 -9.726562 15.648438 -8.710938 16.078125 -8.234375 C 16.515625 -7.753906 17.507812 -7.515625 19.0625 -7.515625 Z M 15.828125 -89.5 L 5.71875 -89.5 L 5.71875 -98.84375 L 15.828125 -98.84375 Z M 15.828125 -89.5 "/></g></g></g><g fill="#16a34a" fill-opacity="1"><g transform="translate(125.150912, 114.463294)"><g><path d="M 21.40625 -7.515625 C 22.4375 -7.515625 23.125 -7.210938 23.46875 -6.609375 C 23.820312 -6.003906 24 -5.054688 24 -3.765625 C 24 -2.460938 23.847656 -1.507812 23.546875 -0.90625 C 23.242188 -0.300781 22.53125 0 21.40625 0 L 17.125 0 C 13.925781 0 11.765625 -0.863281 10.640625 -2.59375 C 9.515625 -0.863281 7.394531 0 4.28125 0 L 0 0 C -1.125 0 -1.835938 -0.300781 -2.140625 -0.90625 C -2.441406 -1.507812 -2.59375 -2.460938 -2.59375 -3.765625 C -2.59375 -5.148438 -2.441406 -6.117188 -2.140625 -6.671875 C -1.835938 -7.234375 -1.125 -7.515625 0 -7.515625 L 2.203125 -7.515625 C 3.765625 -7.515625 4.78125 -7.773438 5.25 -8.296875 C 5.726562 -8.816406 5.96875 -9.8125 5.96875 -11.28125 L 5.96875 -81.578125 L 15.4375 -81.578125 L 15.4375 -11.28125 C 15.4375 -9.726562 15.648438 -8.710938 16.078125 -8.234375 C 16.515625 -7.753906 17.507812 -7.515625 19.0625 -7.515625 Z M 9.078125 17 L 0.515625 17 L 0.515625 7.65625 L 9.078125 7.65625 Z M 20.875 17 L 12.328125 17 L 12.328125 7.65625 L 20.875 7.65625 Z M 20.875 17 "/></g></g></g><g fill="#16a34a" fill-opacity="1"><g transform="translate(146.55023, 114.463294)"><g><path d="M 58.75 -7.515625 C 59.875 -7.515625 60.585938 -7.234375 60.890625 -6.671875 C 61.191406 -6.117188 61.34375 -5.148438 61.34375 -3.765625 C 61.34375 -2.460938 61.191406 -1.507812 60.890625 -0.90625 C 60.585938 -0.300781 59.875 0 58.75 0 L 51.484375 0 C 48.378906 0 46.265625 -0.863281 45.140625 -2.59375 C 44.015625 -0.863281 41.851562 0 38.65625 0 L 0 0 C -1.125 0 -1.835938 -0.300781 -2.140625 -0.90625 C -2.441406 -1.507812 -2.59375 -2.460938 -2.59375 -3.765625 C -2.59375 -5.148438 -2.441406 -6.117188 -2.140625 -6.671875 C -1.835938 -7.234375 -1.125 -7.515625 0 -7.515625 L 4.921875 -7.515625 L 4.921875 -104.9375 L 14.265625 -104.9375 L 14.265625 -75.609375 C 16.253906 -79.585938 20.234375 -81.578125 26.203125 -81.578125 L 37.21875 -81.578125 C 45.613281 -81.578125 49.8125 -77.644531 49.8125 -69.78125 L 49.8125 -11.28125 C 49.8125 -9.8125 50.046875 -8.816406 50.515625 -8.296875 C 50.992188 -7.773438 52.007812 -7.515625 53.5625 -7.515625 Z M 40.34375 -68.875 C 40.34375 -70.769531 39.929688 -72.109375 39.109375 -72.890625 C 38.285156 -73.671875 36.921875 -74.0625 35.015625 -74.0625 L 22.171875 -74.0625 C 19.410156 -74.0625 17.398438 -73.410156 16.140625 -72.109375 C 14.890625 -70.816406 14.265625 -68.613281 14.265625 -65.5 L 14.265625 -7.515625 L 36.703125 -7.515625 C 38.265625 -7.515625 39.257812 -7.753906 39.6875 -8.234375 C 40.125 -8.710938 40.34375 -9.726562 40.34375 -11.28125 Z M 40.34375 -68.875 "/></g></g></g><g fill="#16a34a" fill-opacity="1"><g transform="translate(205.949551, 114.463294)"><g><path d="M 60.828125 -7.515625 C 61.953125 -7.515625 62.664062 -7.234375 62.96875 -6.671875 C 63.269531 -6.117188 63.421875 -5.148438 63.421875 -3.765625 C 63.421875 -2.460938 63.269531 -1.507812 62.96875 -0.90625 C 62.664062 -0.300781 61.953125 0 60.828125 0 L 56.296875 0 C 53.085938 0 50.925781 -0.863281 49.8125 -2.59375 C 48.6875 -0.863281 46.566406 0 43.453125 0 L 37.484375 0 C 34.285156 0 32.125 -0.863281 31 -2.59375 C 30.050781 -0.863281 27.929688 0 24.640625 0 L 18.671875 0 C 15.390625 0 13.273438 -0.863281 12.328125 -2.59375 C 11.203125 -0.863281 9.039062 0 5.84375 0 L 0 0 C -1.125 0 -1.835938 -0.300781 -2.140625 -0.90625 C -2.441406 -1.507812 -2.59375 -2.460938 -2.59375 -3.765625 C -2.59375 -5.148438 -2.441406 -6.117188 -2.140625 -6.671875 C -1.835938 -7.234375 -1.125 -7.515625 0 -7.515625 L 3.765625 -7.515625 C 5.316406 -7.515625 6.328125 -7.753906 6.796875 -8.234375 C 7.273438 -8.710938 7.515625 -9.726562 7.515625 -11.28125 L 7.515625 -67.96875 L 16.984375 -67.96875 L 16.984375 -11.28125 C 16.984375 -9.8125 17.222656 -8.816406 17.703125 -8.296875 C 18.179688 -7.773438 19.15625 -7.515625 20.625 -7.515625 L 22.703125 -7.515625 C 24.171875 -7.515625 25.140625 -7.773438 25.609375 -8.296875 C 26.085938 -8.816406 26.328125 -9.8125 26.328125 -11.28125 L 26.328125 -60.4375 L 35.796875 -60.4375 L 35.796875 -11.28125 C 35.796875 -9.726562 36.007812 -8.710938 36.4375 -8.234375 C 36.875 -7.753906 37.828125 -7.515625 39.296875 -7.515625 L 41.5 -7.515625 C 42.96875 -7.515625 43.941406 -7.773438 44.421875 -8.296875 C 44.898438 -8.816406 45.140625 -9.8125 45.140625 -11.28125 L 45.140625 -68.875 C 45.140625 -70.769531 44.726562 -72.109375 43.90625 -72.890625 C 43.082031 -73.671875 41.71875 -74.0625 39.8125 -74.0625 L 38.265625 -74.0625 L 38.265625 -81.578125 L 41.890625 -81.578125 C 46.210938 -81.578125 49.390625 -80.582031 51.421875 -78.59375 C 53.453125 -76.601562 54.46875 -73.664062 54.46875 -69.78125 L 54.46875 -11.28125 C 54.46875 -9.8125 54.707031 -8.816406 55.1875 -8.296875 C 55.664062 -7.773438 56.679688 -7.515625 58.234375 -7.515625 Z M 60.828125 -7.515625 "/></g></g></g><g fill="#16a34a" fill-opacity="1"><g transform="translate(266.775501, 114.463294)"><g><path d="M 21.40625 -7.515625 C 22.4375 -7.515625 23.125 -7.210938 23.46875 -6.609375 C 23.820312 -6.003906 24 -5.054688 24 -3.765625 C 24 -2.460938 23.847656 -1.507812 23.546875 -0.90625 C 23.242188 -0.300781 22.53125 0 21.40625 0 L 17.125 0 C 13.925781 0 11.765625 -0.863281 10.640625 -2.59375 C 9.515625 -0.863281 7.394531 0 4.28125 0 L 0 0 C -1.125 0 -1.835938 -0.300781 -2.140625 -0.90625 C -2.441406 -1.507812 -2.59375 -2.460938 -2.59375 -3.765625 C -2.59375 -5.148438 -2.441406 -6.117188 -2.140625 -6.671875 C -1.835938 -7.234375 -1.125 -7.515625 0 -7.515625 L 2.203125 -7.515625 C 3.765625 -7.515625 4.78125 -7.773438 5.25 -8.296875 C 5.726562 -8.816406 5.96875 -9.8125 5.96875 -11.28125 L 5.96875 -81.578125 L 6.359375 -81.578125 L 6.359375 -104.9375 L 15.828125 -104.9375 L 15.828125 -13.75 L 15.4375 -13.75 L 15.4375 -11.28125 C 15.4375 -9.726562 15.648438 -8.710938 16.078125 -8.234375 C 16.515625 -7.753906 17.507812 -7.515625 19.0625 -7.515625 Z M 21.40625 -7.515625 "/></g></g></g><g fill="#16a34a" fill-opacity="1"><g transform="translate(288.563897, 114.463294)"><g><path d="M 25.296875 -81.96875 C 33.765625 -81.96875 38 -77.992188 38 -70.046875 L 38 -11.796875 C 38 -3.929688 33.765625 0 25.296875 0 L -0.125 0 C -1.164062 0 -1.835938 -0.300781 -2.140625 -0.90625 C -2.441406 -1.507812 -2.59375 -2.460938 -2.59375 -3.765625 C -2.59375 -5.148438 -2.441406 -6.117188 -2.140625 -6.671875 C -1.835938 -7.234375 -1.125 -7.515625 0 -7.515625 L 23.34375 -7.515625 C 25.25 -7.515625 26.585938 -7.925781 27.359375 -8.75 C 28.140625 -9.570312 28.53125 -10.9375 28.53125 -12.84375 L 28.53125 -19.453125 L 16.859375 -19.453125 C 8.390625 -19.453125 4.15625 -23.429688 4.15625 -31.390625 L 4.15625 -70.046875 C 4.15625 -77.992188 8.390625 -81.96875 16.859375 -81.96875 Z M 28.53125 -27.109375 L 28.53125 -69.125 C 28.53125 -71.03125 28.140625 -72.367188 27.359375 -73.140625 C 26.585938 -73.921875 25.25 -74.3125 23.34375 -74.3125 L 18.8125 -74.3125 C 16.90625 -74.3125 15.5625 -73.921875 14.78125 -73.140625 C 14.007812 -72.367188 13.625 -71.03125 13.625 -69.125 L 13.625 -32.296875 C 13.625 -30.390625 14.007812 -29.046875 14.78125 -28.265625 C 15.5625 -27.492188 16.90625 -27.109375 18.8125 -27.109375 Z M 26.328125 -89.890625 L 16.21875 -89.890625 L 16.21875 -99.234375 L 26.328125 -99.234375 Z M 26.328125 -89.890625 "/></g></g></g></svg>